<svg width="279" height="157" viewBox="0 0 279 157" fill="none" xmlns="http://www.w3.org/2000/svg">
<circle cx="78.5" cy="78.5" r="78.5" fill="#D7DDFF"/>
<path d="M47 32H110.488V49.92H87.576V126.208H69.016V49.92H47V32Z" fill="black"/>
<path d="M110.147 126.16L140.037 57.2501H140.757L170.647 126.16H155.522L136.436 77.6979L145.889 71.2123L123.022 126.16H110.147ZM130.584 102.199H150.481L155.072 113.189H126.533L130.584 102.199Z" fill="black"/>
<path d="M180.306 126.16V57.16H180.396L217.218 109.405L211.636 108.144L248.368 57.16H248.548V126.16H235.494V86.6156L236.304 93.3715L213.887 125.259H213.707L190.66 93.3715L192.91 87.1561V126.16H180.306Z" fill="black"/>
<path d="M265.676 59.8624H278.73V126.16H265.676V59.8624Z" fill="black"/>
</svg>
